<svg width="46" height="46" fill="#497779" viewBox="0 0 24 24" xmlns="http://www.w3.org/2000/svg">
  <path d="M10.969 6.75h2.062V12h7.688a1.031 1.031 0 0 0 1.031-1.031V7.78a1.031 1.031 0 0 0-1.031-1.031h-2.804A3.654 3.654 0 0 0 12 2.615 3.656 3.656 0 0 0 6.085 6.75H3.28a1.031 1.031 0 0 0-1.03 1.03v3.188a1.031 1.031 0 0 0 1.031 1.03h7.688V6.75Zm2.062-1.594a1.594 1.594 0 1 1 1.594 1.594h-1.594V5.156Zm-5.25 0a1.594 1.594 0 0 1 3.188 0V6.75H9.375a1.594 1.594 0 0 1-1.594-1.594Z"></path>
  <path d="M13.031 22.5h6.188a1.031 1.031 0 0 0 1.031-1.031V13.5h-7.219v9Z"></path>
  <path d="M3.75 21.469A1.031 1.031 0 0 0 4.781 22.5h6.188v-9H3.75v7.969Z"></path>
</svg>