<svg width="46" height="46" fill="#497779" viewBox="0 0 24 24" xmlns="http://www.w3.org/2000/svg">
  <path d="M9.33 11.501h2.17a4.5 4.5 0 0 1 4.5 4.5H8.999l.001 1h8v-1a5.578 5.578 0 0 0-.886-3H19a5 5 0 0 1 4.516 2.851c-2.365 3.121-6.194 5.15-10.516 5.15-2.761 0-5.1-.59-7-1.626v-9.304a6.967 6.967 0 0 1 3.33 1.43ZM4 9.001a1 1 0 0 1 .993.883l.007.117v9a1 1 0 0 1-1 1H2a1 1 0 0 1-1-1v-9a1 1 0 0 1 1-1h2Zm9.646-5.425.354.355.354-.354a2.5 2.5 0 1 1 3.535 3.536L14 11.001l-3.89-3.89a2.5 2.5 0 1 1 3.536-3.535Z"></path>
</svg>